<?xml version="1.0" standalone="no"?>
<!DOCTYPE svg PUBLIC "-//W3C//DTD SVG 20010904//EN"
 "http://www.w3.org/TR/2001/REC-SVG-20010904/DTD/svg10.dtd">
<svg version="1.0" xmlns="http://www.w3.org/2000/svg"
 width="130.000000pt" height="85.000000pt" viewBox="0 0 130.000000 85.000000"
 preserveAspectRatio="xMidYMid meet">

<g transform="translate(0.000000,85.000000) scale(0.100000,-0.100000)"
fill="#000000" stroke="none">
<path d="M0 425 l0 -425 365 0 365 0 0 117 0 118 99 -99 c86 -86 102 -98 115
-86 9 7 16 18 16 24 0 6 -52 63 -115 126 l-115 115 0 -40 0 -40 -42 42 c-41
42 -42 42 -23 63 l18 20 24 -22 23 -21 0 113 0 113 -25 -23 c-24 -23 -25 -23
-45 -5 -21 19 -21 19 25 65 l45 46 0 112 0 112 -365 0 -365 0 0 -425z m387
280 c63 -19 136 -82 168 -146 32 -62 31 -69 -3 -69 -24 0 -32 7 -47 39 -60
134 -234 174 -348 80 -98 -80 -111 -224 -30 -319 62 -72 143 -99 229 -77 65
17 115 56 145 112 20 37 29 45 52 45 25 0 27 -3 22 -22 -15 -50 -59 -111 -102
-141 -61 -44 -97 -55 -173 -56 -79 -1 -149 28 -203 83 -53 55 -71 100 -75 189
-4 68 -1 84 22 132 64 130 203 191 343 150z"/>
<path d="M980 635 l-205 -205 210 -210 210 -210 45 0 45 0 -209 209 -208 208
201 198 c111 109 201 202 201 207 0 4 -19 8 -43 8 -42 0 -45 -2 -247 -205z"/>
<path d="M832 727 c-86 -88 -102 -109 -102 -136 0 -17 3 -31 8 -31 4 0 59 52
122 115 l115 115 -21 20 -20 20 -102 -103z"/>
</g>
</svg>
