<svg xmlns="http://www.w3.org/2000/svg" width="20mm" height="20mm" viewBox="0 0 20 20"><path style="marker:none" d="M9.998 4.31a6.289 6.289 0 00-5.681 3.575c-.053-.005-.104-.016-.158-.016-.942 0-1.7.758-1.7 1.7v2.102c0 .941.758 1.7 1.7 1.7.054 0 .105-.012.158-.017.067.14.138.28.217.417.308.552 1.134.08.815-.466a5.369 5.369 0 011.2-6.802 5.363 5.363 0 016.903 0 5.369 5.369 0 011.2 6.802l-.015.023-.01.024s-.633 1.402-1.878 1.402l-1.575-.014a.807.807 0 00-.666-.366H9.492a.82.82 0 00-.822.822c0 .281.179.495.586.495h3.493c1.868 0 2.676-1.834 2.713-1.918v-.005c.078-.136.147-.276.214-.415.055.005.108.016.165.016.942 0 1.7-.758 1.7-1.7V9.568c0-.942-.758-1.7-1.7-1.7-.054 0-.106.009-.159.016a6.268 6.268 0 00-1.626-2.1 6.305 6.305 0 00-4.059-1.475zm-2.05 2.988c-.365-.024-.7.053-.992.36a4.56 4.56 0 00-1.26 3.126c0 .98.327 2.08.88 2.12.786.057 2.027-.46 3.424-.46 1.48 0 2.787.58 3.562.443.47-.083.744-1.206.744-2.103a4.561 4.561 0 00-1.262-3.125c-.779-.82-1.855 0-3.044 0-.743 0-1.441-.321-2.051-.361zm-.174 2.021a.787.787 0 110 1.574.787.787 0 010-1.574zm4.452 0a.787.787 0 110 1.574.787.787 0 010-1.574z" fill="#e0e0e2" fill-rule="evenodd"/></svg>