<svg width="32" height="32" viewBox="0 0 32 32" fill="none" xmlns="http://www.w3.org/2000/svg">
    <path fill-rule="evenodd" clip-rule="evenodd" d="M9.15567 17.1911L7.45561 15.8311C7.16002 16.7224 7 17.6755 7 18.6661C7 23.6366 11.0294 27.6661 16 27.6661C20.9706 27.6661 25 23.6366 25 18.6661C25 17.6755 24.84 16.7224 24.5444 15.8311L22.8443 17.1911C22.9463 17.6666 23 18.1601 23 18.6661C23 22.5321 19.866 25.6661 16 25.6661C12.134 25.6661 9 22.5321 9 18.6661C9 18.1601 9.05369 17.6666 9.15567 17.1911Z" fill="#E0E0E2"/>
    <path d="M15.9997 5.33333L15.375 4.55246L15.9997 4.0527L16.6244 4.55246L15.9997 5.33333ZM16.9997 17.3333C16.9997 17.8856 16.552 18.3333 15.9997 18.3333C15.4474 18.3333 14.9997 17.8856 14.9997 17.3333L16.9997 17.3333ZM8.70831 9.88579L15.375 4.55246L16.6244 6.1142L9.9577 11.4475L8.70831 9.88579ZM16.6244 4.55246L23.291 9.88579L22.0416 11.4475L15.375 6.1142L16.6244 4.55246ZM16.9997 5.33333L16.9997 17.3333L14.9997 17.3333L14.9997 5.33333L16.9997 5.33333Z" fill="#E0E0E2"/>
  </svg>