<svg width="24" height="25" viewBox="0 0 24 25" fill="none" xmlns="http://www.w3.org/2000/svg">
<path d="M4.15838 14.4306C3.44537 13.2423 3.44537 11.7577 4.15838 10.5694C4.37596 10.2067 4.73641 9.95272 5.1511 9.86978L6.84413 9.53117C6.94499 9.511 7.03591 9.45691 7.10176 9.37788L9.17085 6.89498C10.3534 5.47592 10.9447 4.76638 11.4723 4.95742C12 5.14846 12 6.07207 12 7.91928L12 17.0807C12 18.9279 12 19.8515 11.4723 20.0426C10.9447 20.2336 10.3534 19.5241 9.17085 18.105L7.10176 15.6221C7.03591 15.5431 6.94499 15.489 6.84413 15.4688L5.1511 15.1302C4.73641 15.0473 4.37596 14.7933 4.15838 14.4306Z" fill="#121212"/>
<path d="M14.5355 8.96447C15.4684 9.89732 15.9948 11.1611 16 12.4803C16.0052 13.7996 15.4888 15.0674 14.5633 16.0076" stroke="#121212" stroke-width="2" stroke-linecap="round"/>
<path d="M18.6569 6.84314C20.1494 8.33572 20.9916 10.3577 20.9999 12.4685C21.0083 14.5793 20.182 16.6078 18.7012 18.1121" stroke="#121212" stroke-width="2" stroke-linecap="round"/>
</svg>
