<svg width="24" height="25" viewBox="0 0 24 25" fill="none" xmlns="http://www.w3.org/2000/svg">
<path fill-rule="evenodd" clip-rule="evenodd" d="M15 4.5C15.292 4.5 15.438 4.5 15.5781 4.54183C16.192 4.72522 16.4775 5.43111 16.1637 5.98976C16.0921 6.11719 15.8744 6.32779 15.4389 6.749C13.935 8.20352 13 10.2426 13 12.5C13 14.7574 13.935 16.7965 15.4389 18.251C15.8744 18.6722 16.0921 18.8828 16.1637 19.0102C16.4775 19.5689 16.192 20.2748 15.5781 20.4582C15.438 20.5 15.292 20.5 15 20.5C10.5817 20.5 7 16.9183 7 12.5C7 8.08172 10.5817 4.5 15 4.5Z" fill="#E0E0E2"/>
</svg>
