<svg width="80" height="80" viewBox="0 0 80 80" fill="none" xmlns="http://www.w3.org/2000/svg">
<path d="M17.0215 8.67822C12.5359 8.67822 9.21774 12.6057 9.36586 16.8651C9.50836 20.9563 9.32336 26.2563 7.98899 30.5776C6.65148 34.9126 4.38898 37.652 0.693359 38.0045V41.9963C4.38898 42.3482 6.65148 45.0882 7.98899 49.4232C9.32336 53.7445 9.50774 59.0445 9.36586 63.1357C9.21711 67.3951 12.5359 71.322 17.0215 71.322H62.984C67.4696 71.322 70.7877 67.3945 70.6396 63.1357C70.4971 59.0445 70.6821 53.7445 72.0159 49.4232C73.3534 45.0888 75.6102 42.3488 79.3059 41.9963V38.0045C75.6102 37.6526 73.354 34.9126 72.0159 30.5776C70.6821 26.2563 70.4971 20.9563 70.6396 16.8651C70.7877 12.6057 67.4696 8.67822 62.9834 8.67822H17.0215ZM53.3427 47.232C53.3427 53.097 48.9665 56.6526 41.7046 56.6526H28.3159C28.2345 56.6526 28.1564 56.6203 28.0989 56.5627C28.0413 56.5052 28.009 56.4271 28.009 56.3457V23.642C28.0089 23.6016 28.0168 23.5616 28.0322 23.5243C28.0476 23.487 28.0701 23.4531 28.0986 23.4246C28.1272 23.396 28.161 23.3734 28.1983 23.3579C28.2356 23.3424 28.2755 23.3345 28.3159 23.3345H41.634C47.6896 23.3345 51.6634 26.6132 51.6634 31.647C51.6634 35.1801 48.9902 38.3426 45.584 38.897V39.082C50.2202 39.5901 53.3427 42.7995 53.3427 47.232ZM40.3565 27.5601H33.3077V37.5113H39.2452C43.834 37.5113 46.3646 35.6645 46.3646 32.3626C46.3646 29.2688 44.189 27.5601 40.3565 27.5601ZM33.3077 41.4601V52.4276H40.6171C45.3952 52.4276 47.9265 50.5113 47.9265 46.9088C47.9265 43.307 45.3246 41.4601 40.3096 41.4601H33.3077Z" fill="#7952B3"/>
</svg>
