<svg width="80" height="80" viewBox="0 0 80 80" fill="none" xmlns="http://www.w3.org/2000/svg">
<path d="M5.47461 0.625L11.759 71.1769L39.9577 79.0394L68.2352 71.1481L74.5246 0.625H5.47461ZM61.469 16.7887L59.3771 40.2919L59.3834 40.4187L59.3746 40.7106V40.7081L57.8884 57.1419L57.7246 58.6019L39.9996 63.5044V63.505L39.9859 63.5169L22.2915 58.5869L21.0934 45H29.7702L30.3859 51.9088L40.0021 54.515L39.9996 54.52V54.5188L49.6515 51.8756L50.6715 40.625H30.4946L30.3215 38.7231L29.9271 34.2675L29.7202 31.875H51.4384L52.2284 23.125H19.1496L18.9765 21.2244L18.5827 16.7675L18.3752 14.375H61.6759L61.469 16.7887Z" fill="#1572B6"/>
</svg>
