<svg width="80" height="80" viewBox="0 0 80 80" fill="none" xmlns="http://www.w3.org/2000/svg">
<path d="M25.3311 48.6375V31.7125H26.2498V34.375C26.3583 34.257 26.4586 34.1317 26.5498 34C26.9252 33.2206 27.515 32.5645 28.25 32.1084C28.985 31.6524 29.8348 31.4153 30.6998 31.4249C32.7936 31.3624 34.4936 32.1375 35.4936 34C36.1298 35.157 36.48 36.4494 36.5148 37.7694C36.5496 39.0894 36.268 40.3985 35.6936 41.5875C34.7623 43.675 32.4623 44.7125 29.9998 44.3312C29.2335 44.2659 28.4957 44.0098 27.8538 43.5862C27.2119 43.1626 26.6862 42.5851 26.3248 41.9062V48.6375H25.3311ZM26.2498 37.6999C26.3311 38.525 26.3623 39.1125 26.4561 39.6875C26.8186 41.95 28.1561 43.2937 30.2561 43.5375C31.2421 43.6995 32.2538 43.5147 33.1189 43.0143C33.9839 42.514 34.6486 41.7292 34.9998 40.7937C35.4034 39.8314 35.5976 38.7943 35.5696 37.7512C35.5415 36.7081 35.2919 35.6829 34.8373 34.7437C34.4624 33.9052 33.8249 33.2114 33.021 32.7672C32.2171 32.323 31.2905 32.1524 30.3811 32.2812C29.5272 32.3431 28.7139 32.6694 28.0541 33.2149C27.3944 33.7604 26.921 34.498 26.6998 35.325C26.5041 36.1073 26.3538 36.9003 26.2498 37.6999ZM55.2561 40C55.1168 41.1916 54.5496 42.2921 53.6598 43.0969C52.7699 43.9016 51.6181 44.3558 50.4186 44.375C46.5686 44.5687 44.7623 42.0125 44.4748 39.0624C44.2753 37.4604 44.5354 35.8347 45.2248 34.375C45.7049 33.3736 46.4912 32.5511 47.4699 32.0264C48.4486 31.5016 49.5688 31.3019 50.6686 31.4562C51.714 31.5448 52.7052 31.9601 53.5016 32.6432C54.298 33.3263 54.8593 34.2426 55.106 35.2624C55.3017 36.1913 55.4456 37.1302 55.5373 38.0749H45.4186C45.2311 40.7499 46.6686 42.9 48.7061 43.4187C51.2436 44.0437 53.4123 42.9437 54.1998 40.5312C54.3748 39.9124 54.6936 39.825 55.2561 40ZM45.4186 37.2187H54.4623C54.4061 34.3687 52.6311 32.3062 50.2248 32.2749C47.4998 32.2312 45.5373 34.2187 45.4186 37.2187ZM57.1185 40.0624H58.0061C58.0388 40.7155 58.251 41.3469 58.6193 41.8871C58.9876 42.4274 59.4977 42.8557 60.0936 43.125C60.8418 43.4617 61.6563 43.6253 62.4766 43.6037C63.2968 43.582 64.1016 43.3757 64.8311 43C65.2286 42.8207 65.5616 42.5239 65.7851 42.1495C66.0086 41.7751 66.1119 41.3412 66.0811 40.9062C66.1039 40.4867 65.9894 40.0712 65.7548 39.7227C65.5202 39.3742 65.1783 39.1116 64.7811 38.975C63.8061 38.6125 62.7685 38.4125 61.7748 38.0937C60.7408 37.7993 59.7298 37.4295 58.7498 36.9875C57.1498 36.2062 57.0498 33.1625 58.8623 32.2C59.7904 31.6762 60.8348 31.3933 61.9004 31.3769C62.9659 31.3605 64.0186 31.6112 64.9623 32.1062C65.534 32.4222 65.9958 32.9049 66.2861 33.49C66.5764 34.0751 66.6815 34.7348 66.5873 35.3812H65.8248C65.8248 35.3437 65.7561 35.3124 65.7561 35.2749C65.6623 32.8437 63.6248 32.0937 61.4373 32.3062C60.7843 32.3867 60.15 32.5791 59.5623 32.8749C59.2092 33.0364 58.915 33.3035 58.7202 33.6394C58.5254 33.9752 58.4396 34.3633 58.4748 34.7499C58.4759 35.1368 58.5966 35.5138 58.8204 35.8294C59.0442 36.1449 59.3601 36.3835 59.7248 36.5124C60.6873 36.8624 61.6936 37.0874 62.681 37.3624C63.4748 37.5812 64.2998 37.7249 65.0686 37.9874C65.6111 38.1653 66.0869 38.5038 66.4329 38.958C66.7789 39.4122 66.9788 39.9609 67.0061 40.5312C67.0988 41.1561 66.9923 41.7944 66.7018 42.3553C66.4112 42.9163 65.9513 43.3715 65.3873 43.6562C63.2998 44.8375 59.8623 44.525 58.3311 43.0312C57.943 42.6409 57.636 42.1776 57.4279 41.6681C57.2198 41.1585 57.1147 40.6128 57.1185 40.0624ZM78.2561 35.3812H77.4248C77.4248 35.2687 77.3811 35.1687 77.3686 35.0749C77.3551 34.4519 77.1279 33.8523 76.7251 33.3767C76.3224 32.9011 75.7684 32.5784 75.1561 32.4624C74.0006 32.1309 72.7681 32.1903 71.6498 32.6312C71.2078 32.7579 70.8186 33.0242 70.5404 33.3903C70.2622 33.7564 70.1098 34.2027 70.106 34.6624C70.0905 35.114 70.2313 35.5571 70.5045 35.9169C70.7778 36.2767 71.1669 36.5312 71.606 36.6374C72.856 37.0249 74.1373 37.2625 75.4061 37.6125C75.8172 37.7111 76.2221 37.8343 76.6185 37.9812C77.2106 38.193 77.7249 38.5785 78.0944 39.0873C78.4639 39.596 78.6713 40.2044 78.6895 40.833C78.7078 41.4615 78.536 42.0809 78.1966 42.6102C77.8572 43.1395 77.3661 43.5542 76.7873 43.8C75.9053 44.2005 74.9494 44.4123 73.9807 44.422C73.0121 44.4317 72.0521 44.239 71.1623 43.8562C70.4305 43.5406 69.813 43.0084 69.3929 42.3313C68.9728 41.6541 68.7701 40.8645 68.8123 40.0687H69.6248C69.7751 40.7939 70.0999 41.4715 70.5711 42.0429C71.0423 42.6142 71.6457 43.0621 72.329 43.3477C73.0123 43.6334 73.7549 43.7481 74.4925 43.6821C75.2302 43.616 75.9406 43.3712 76.5623 42.9687C76.941 42.7719 77.2554 42.4707 77.468 42.1007C77.6807 41.7307 77.7829 41.3075 77.7623 40.8812C77.7811 40.4615 77.6626 40.047 77.4246 39.7008C77.1866 39.3545 76.8422 39.0953 76.4436 38.9625C75.4686 38.6 74.4311 38.4062 73.4373 38.0874C72.3974 37.7975 71.3801 37.432 70.3935 36.9937C68.831 36.2249 68.706 33.2062 70.4873 32.2437C71.4269 31.698 72.4918 31.4049 73.5782 31.3929C74.6647 31.3808 75.7358 31.6503 76.6873 32.175C77.2314 32.4998 77.6694 32.9758 77.948 33.545C78.2265 34.1143 78.3335 34.7522 78.2561 35.3812ZM23.8123 44.0687C23.4851 44.1926 23.1238 44.1924 22.7967 44.068C22.4697 43.9436 22.1995 43.7037 22.0373 43.3937C21.0186 41.8687 19.8936 40.4124 18.8123 38.9249L18.3436 38.2999C17.0561 40.0249 15.7686 41.6812 14.5936 43.4C14.4405 43.6963 14.1849 43.9268 13.8744 44.0487C13.564 44.1706 13.2198 44.1755 12.9061 44.0625L17.7373 37.5812L13.2436 31.7249C13.567 31.6081 13.9209 31.6065 14.2454 31.7204C14.5699 31.8343 14.8452 32.0566 15.0248 32.3499C16.0686 33.8749 17.2248 35.3312 18.3748 36.8749C19.5311 35.3437 20.6748 33.8812 21.7436 32.3687C21.8975 32.0772 22.1532 31.8525 22.462 31.7372C22.7709 31.622 23.1113 31.6243 23.4186 31.7437L21.6748 34.0562C20.8936 35.0875 20.1248 36.1249 19.3123 37.1312C19.2468 37.1898 19.1945 37.2616 19.1586 37.3418C19.1228 37.4221 19.1042 37.5089 19.1042 37.5968C19.1042 37.6847 19.1228 37.7716 19.1586 37.8518C19.1945 37.9321 19.2468 38.0038 19.3123 38.0625C20.8061 40.0437 22.2873 42.0312 23.8123 44.0687ZM44.3248 31.6625V32.5375C43.6927 32.496 43.0589 32.5875 42.4643 32.8062C41.8697 33.0248 41.3276 33.3657 40.873 33.8068C40.4183 34.2479 40.0612 34.7795 39.8247 35.3672C39.5881 35.9549 39.4775 36.5856 39.4998 37.2187V44.0937H38.6061V31.7125H39.481V34.2499C40.5623 32.3999 42.2311 31.7125 44.3248 31.6625ZM1.33105 37.4999C1.4623 36.8749 1.54355 36.1937 1.7248 35.5562C2.80605 31.7124 7.2123 30.1125 10.2436 32.4937C12.0186 33.8875 12.4623 35.8624 12.3748 38.0874H2.3748C2.2123 42.0624 5.08105 44.4625 8.7498 43.2375C9.34493 43.0246 9.87767 42.6668 10.2999 42.1966C10.7222 41.7263 11.0207 41.1582 11.1686 40.5437C11.3623 39.9187 11.6748 39.8125 12.2686 39.9937C12.1708 40.7546 11.9017 41.4834 11.4817 42.1253C11.0617 42.7673 10.5016 43.3056 9.84355 43.6999C8.7563 44.2945 7.5089 44.53 6.27971 44.3729C5.05051 44.2157 3.90249 43.6739 2.9998 42.8249C2.10678 41.8209 1.56681 40.5521 1.4623 39.2125C1.4623 39 1.38105 38.7875 1.3373 38.5875C1.33314 38.2166 1.33105 37.8541 1.33105 37.4999ZM2.3873 37.2312H11.4311C11.3748 34.3499 9.55605 32.3062 7.13105 32.2875C4.43105 32.25 2.4998 34.2499 2.38105 37.2187L2.3873 37.2312Z" fill="#E0E0E2"/>
</svg>
