<svg width="80" height="80" viewBox="0 0 80 80" fill="none" xmlns="http://www.w3.org/2000/svg">
<path d="M47.7484 34.7974C46.0377 34.7974 44.764 35.6374 44.764 37.6593C44.764 39.1824 45.6034 40.2399 47.6565 40.2399C49.3965 40.2399 50.579 39.2143 50.579 37.5962C50.579 35.7624 49.5209 34.7974 47.7484 34.7974ZM44.329 49.0724C43.924 49.5693 43.5202 50.0974 43.5202 50.7206C43.5202 51.9637 45.1052 52.3374 47.2834 52.3374C49.0865 52.3374 51.5434 52.2112 51.5434 50.5343C51.5434 49.5374 50.3609 49.4762 48.8677 49.3824L44.329 49.0724ZM53.5321 34.8912C54.0915 35.6068 54.6834 36.6018 54.6834 38.0324C54.6834 41.4837 51.9777 43.5049 48.0602 43.5049C47.064 43.5049 46.1621 43.3812 45.6027 43.2256L44.5765 44.8737L47.6234 45.0593C53.0034 45.4024 56.1746 45.5581 56.1746 49.6924C56.1746 53.2693 53.0346 55.2893 47.6234 55.2893C41.9946 55.2893 39.8496 53.8587 39.8496 51.4031C39.8496 50.0031 40.4721 49.2587 41.5602 48.2306C40.5334 47.7968 40.1921 47.0199 40.1921 46.1799C40.1921 45.4956 40.534 44.8737 41.094 44.2824C41.654 43.6924 42.2759 43.1006 43.0215 42.4168C41.4977 41.6706 40.3477 40.0537 40.3477 37.7518C40.3477 34.1762 42.7109 31.7206 47.4684 31.7206C48.8059 31.7206 49.6152 31.8437 50.3296 32.0318H56.394V34.6743L53.5321 34.8912ZM61.8646 29.2412C60.0915 29.2412 59.0652 28.2143 59.0652 26.4412C59.0652 24.6706 60.0915 23.7056 61.8646 23.7056C63.6684 23.7056 64.694 24.6699 64.694 26.4412C64.6946 28.2143 63.6684 29.2412 61.8646 29.2412ZM57.8521 47.9287V45.4731L59.439 45.2556C59.874 45.1931 59.9359 45.0999 59.9359 44.6324V35.4906C59.9359 35.1493 59.8434 34.9306 59.5315 34.8381L57.8521 34.2468L58.194 31.7293H64.6321V44.6331C64.6321 45.1318 64.6621 45.1931 65.1296 45.2562L66.7159 45.4737V47.9293H57.8521V47.9287ZM79.0127 46.7224C77.6746 47.3743 75.7165 47.9662 73.9427 47.9662C70.2427 47.9662 68.844 46.4749 68.844 42.9593V34.8124C68.844 34.6268 68.844 34.5018 68.5946 34.5018H66.4184V31.7343C69.1559 31.4224 70.2434 30.0543 70.5852 26.6649H73.5402V31.0818C73.5402 31.2987 73.5402 31.3931 73.789 31.3931H78.1734V34.5024H73.5402V41.9337C73.5402 43.7681 73.9759 44.4831 75.6546 44.4831C76.5265 44.4831 77.4271 44.2662 78.1734 43.9862L79.0127 46.7224Z" fill="#31251C"/>
<path d="M32.9376 38.5624L18.7194 24.3449C18.3262 23.9518 17.7929 23.731 17.2369 23.731C16.6809 23.731 16.1477 23.9518 15.7544 24.3449L12.8019 27.2974L16.5463 31.0424C16.9866 30.8927 17.46 30.8693 17.9129 30.9749C18.3659 31.0805 18.7801 31.3109 19.1088 31.6399C19.4394 31.9708 19.6703 32.3881 19.775 32.844C19.8796 33.2999 19.8539 33.7761 19.7007 34.218L23.3101 37.8274C23.8435 37.6415 24.4243 37.6424 24.9572 37.8298C25.4901 38.0173 25.9435 38.3802 26.2432 38.8591C26.5428 39.338 26.6709 39.9045 26.6064 40.4657C26.5419 41.0269 26.2886 41.5496 25.8882 41.948C25.4805 42.3565 24.9438 42.611 24.3696 42.6682C23.7953 42.7254 23.2189 42.5818 22.7387 42.2618C22.2584 41.9418 21.904 41.4651 21.7357 40.9131C21.5674 40.3611 21.5956 39.7678 21.8157 39.2343L18.4494 35.868L18.4488 44.7268C18.8041 44.9023 19.1125 45.1599 19.3485 45.4783C19.5844 45.7967 19.7412 46.1667 19.8057 46.5577C19.8702 46.9487 19.8406 47.3494 19.7194 47.7268C19.5982 48.1041 19.3889 48.4471 19.1088 48.7274C18.8476 48.9885 18.5317 49.1884 18.1839 49.3126C17.8361 49.4369 17.465 49.4823 17.0975 49.4458C16.73 49.4092 16.3751 49.2916 16.0586 49.1013C15.7421 48.911 15.4717 48.6528 15.267 48.3453C15.0624 48.0379 14.9285 47.6889 14.8751 47.3234C14.8217 46.9579 14.85 46.5852 14.9581 46.232C15.0662 45.8789 15.2513 45.5541 15.5001 45.2811C15.749 45.0082 16.0552 44.7939 16.3969 44.6537V35.713C16.0922 35.5882 15.8152 35.4043 15.582 35.1719C15.3487 34.9395 15.1638 34.6632 15.0379 34.359C14.912 34.0547 14.8476 33.7286 14.8484 33.3993C14.8492 33.07 14.9152 32.7442 15.0426 32.4405L11.3513 28.748L1.60193 38.4968C1.40707 38.6916 1.2525 38.9228 1.14704 39.1774C1.04158 39.4319 0.987305 39.7047 0.987305 39.9802C0.987305 40.2557 1.04158 40.5285 1.14704 40.7831C1.2525 41.0376 1.40707 41.2689 1.60193 41.4637L15.8201 55.6812C16.2135 56.0743 16.747 56.2952 17.3032 56.2952C17.8594 56.2952 18.3929 56.0743 18.7863 55.6812L32.9376 41.5287C33.1324 41.3339 33.2869 41.1027 33.3924 40.8482C33.4978 40.5938 33.5521 40.321 33.5521 40.0455C33.5521 39.7701 33.4978 39.4973 33.3924 39.2428C33.2869 38.9883 33.1324 38.7571 32.9376 38.5624Z" fill="#F34F29"/>
</svg>
