<?xml version="1.0" encoding="UTF-8"?>
<svg version="1.1" xmlns="http://www.w3.org/2000/svg" width="280" height="280">
<path d="M0 0 C1.63529753 -0.00935994 1.63529753 -0.00935994 3.30363137 -0.01890898 C6.9695708 -0.03490849 10.63485173 -0.02220693 14.30079651 -0.00964355 C16.92378631 -0.01506158 19.54677307 -0.02218244 22.16975403 -0.03088379 C28.56246816 -0.04868552 34.95499461 -0.04482159 41.34771615 -0.03323323 C46.54305552 -0.02420485 51.73834224 -0.02297231 56.93368721 -0.02732849 C57.67272309 -0.02794142 58.41175896 -0.02855436 59.17318987 -0.02918586 C60.67447409 -0.03046475 62.1757583 -0.0317616 63.67704249 -0.03307623 C77.76037935 -0.04448707 91.84361213 -0.03136087 105.92693193 -0.00987476 C118.01270587 0.007993 130.09832613 0.00489579 142.18409729 -0.0135498 C156.21499556 -0.03495404 170.24580254 -0.04338448 184.27671486 -0.03110075 C185.77282558 -0.02982654 187.26893632 -0.02856906 188.76504707 -0.02732849 C189.86924797 -0.02640284 189.86924797 -0.02640284 190.99575595 -0.02545848 C196.18471771 -0.02200396 201.37362159 -0.0278362 206.56257439 -0.0372467 C213.54673253 -0.04963432 220.53059528 -0.0408193 227.51472473 -0.01766968 C230.08142679 -0.01237065 232.64815323 -0.01391661 235.21484566 -0.02272034 C238.71208544 -0.03361178 242.20838681 -0.01998819 245.70556641 0 C247.23795217 -0.01338433 247.23795217 -0.01338433 248.80129522 -0.02703905 C253.15833633 0.02143623 255.71779646 0.0933225 259.52319431 2.35218048 C262.15103273 5.34464317 262.54085931 7.75096572 262.55671692 11.59347534 C262.56242706 12.42337479 262.56813721 13.25327423 262.57402039 14.10832214 C262.57513824 15.01540421 262.5762561 15.92248627 262.57740784 16.85705566 C262.58237274 17.81506577 262.58733765 18.77307587 262.592453 19.76011658 C262.60707533 22.93387567 262.61387645 26.1075848 262.61940002 29.28137207 C262.62515103 31.48471071 262.63090877 33.68804933 262.63667297 35.89138794 C262.6471829 40.513247 262.65302575 45.13508867 262.6565094 49.75695801 C262.66199677 55.68098012 262.68603017 61.60477269 262.71448135 67.52872276 C262.73309827 72.08060378 262.73831281 76.63242937 262.73984528 81.18434525 C262.74287402 83.36843751 262.75090998 85.55252875 262.76403046 87.73658371 C262.78107233 90.79124209 262.77921521 93.84533787 262.77272034 96.90002441 C262.78193512 97.80305801 262.7911499 98.70609161 262.80064392 99.63648987 C262.76905595 104.37562871 262.62972795 107.74248338 259.41627502 111.50793457 C256.45597908 113.31469043 254.24466802 113.75914212 250.79944706 113.76520348 C249.40747627 113.77487681 249.40747627 113.77487681 247.98738486 113.78474557 C246.97134552 113.78164837 245.95530619 113.77855117 244.90847778 113.77536011 C243.28543091 113.78215678 243.28543091 113.78215678 241.62959522 113.78909075 C237.99146959 113.80178572 234.35349267 113.80011109 230.71534729 113.79846191 C228.11206366 113.80444392 225.50878182 113.8112487 222.90550232 113.81881714 C216.56096947 113.83543233 210.21647379 113.84092689 203.87192101 113.84204189 C198.71568424 113.84299201 193.55945974 113.84710048 188.40322685 113.85344315 C173.78773651 113.87105605 159.17227554 113.8802818 144.5567745 113.8787822 C143.76879591 113.87870229 142.98081731 113.87862237 142.16896057 113.87854004 C141.38002122 113.87845828 140.59108186 113.87837652 139.77823525 113.87829228 C126.98779421 113.8774791 114.19747085 113.89662464 101.40706385 113.92481677 C88.27729058 113.95352887 75.14757475 113.96735803 62.01776928 113.96562922 C54.64499024 113.96496479 47.27233461 113.97048013 39.89958382 113.99198532 C32.96797923 114.0120741 26.03663972 114.0115406 19.10502243 113.99695206 C16.55766228 113.99485415 14.01028608 113.9996228 11.46295357 114.01167297 C7.99201037 114.02703189 4.52197847 114.01787844 1.05105591 114.00241089 C-0.46965701 114.01784158 -0.46965701 114.01784158 -2.0210914 114.033584 C-6.29793166 113.99131329 -8.91340876 113.88268 -12.69795036 111.76690292 C-14.80104708 109.24760454 -15.25197955 108.10811627 -15.39089966 104.8699646 C-15.43711142 103.98820431 -15.48332317 103.10644402 -15.53093529 102.19796371 C-15.54835588 101.3102541 -15.56577648 100.42254448 -15.58372498 99.50793457 C-15.60621622 98.71161747 -15.62870747 97.91530037 -15.65188026 97.09485245 C-15.69452666 94.63371799 -15.68831049 92.17685763 -15.66893005 89.7154541 C-15.66574768 88.7938298 -15.66256531 87.87220551 -15.6592865 86.9226532 C-15.6468188 83.91194759 -15.62593346 80.90139215 -15.60325623 77.89074707 C-15.59629919 76.85681698 -15.58934216 75.82288689 -15.5821743 74.75762558 C-15.54495811 69.2999801 -15.50102737 63.84243609 -15.4516449 58.3848877 C-15.40202163 52.74917534 -15.37602273 47.11360594 -15.35521412 41.47772408 C-15.33488197 37.13678323 -15.29702638 32.79612238 -15.25435448 28.45534897 C-15.23700518 26.37654938 -15.2263174 24.29768315 -15.22240639 22.21881485 C-15.21534633 19.32004451 -15.18348979 16.42255472 -15.14549255 13.52404785 C-15.14895187 12.66581924 -15.15241119 11.80759064 -15.15597534 10.9233551 C-15.14061737 10.13296341 -15.1252594 9.34257172 -15.10943604 8.52822876 C-15.10445004 7.84434145 -15.09946405 7.16045414 -15.09432697 6.45584297 C-13.128543 -1.04347577 -6.33108105 -0.05517713 0 0 Z " fill="#111419" transform="translate(16.583724975585938,81.4920654296875)"/>
<path d="M0 0 C4.58350255 3.92871647 8.86034341 7.76474788 13.01171875 12.08984375 C14.10943571 13.21476907 15.20776012 14.33910189 16.30664062 15.46289062 C18.01108092 17.21085065 19.71126951 18.96227161 21.40161133 20.72387695 C23.05204175 22.44059923 24.7176949 24.14121961 26.38671875 25.83984375 C26.89095871 26.37302719 27.39519867 26.90621063 27.91471863 27.45555115 C29.48832972 29.09924718 29.48832972 29.09924718 32 31 C35.28125804 30.68228066 36.91732958 29.44686308 39.17626953 27.13256836 C40.06706711 26.23174782 40.06706711 26.23174782 40.9758606 25.31272888 C41.60515472 24.66167679 42.23444885 24.01062469 42.8828125 23.33984375 C43.53829071 22.67537735 44.19376892 22.01091095 44.86911011 21.3263092 C46.96167797 19.20371037 49.04406637 17.07150152 51.125 14.9375 C53.21393977 12.80083359 55.30501239 10.66644038 57.40231323 8.53797913 C58.70732798 7.21310672 60.00737561 5.88332046 61.30203247 4.54832458 C61.8895932 3.95092972 62.47715393 3.35353485 63.08251953 2.73803711 C63.59896027 2.20810654 64.115401 1.67817596 64.64749146 1.13218689 C66 0 66 0 68 0 C68 21.12 68 42.24 68 64 C64.04 64 60.08 64 56 64 C55.67 52.78 55.34 41.56 55 30 C48.4 36.6 41.8 43.2 35 50 C31.31246157 48.15623078 29.49931076 46.7350152 26.671875 43.8671875 C25.9509668 43.14128418 25.23005859 42.41538086 24.48730469 41.66748047 C23.58399414 40.74596191 22.68068359 39.82444336 21.75 38.875 C17.41875 34.481875 17.41875 34.481875 13 30 C12.67 41.22 12.34 52.44 12 64 C8.04 64 4.08 64 0 64 C0 42.88 0 21.76 0 0 Z " fill="#FBFBFB" transform="translate(29,107)"/>
<path d="M0 0 C3.86328627 1.5847358 6.28876923 4.05956887 9.203125 7.0078125 C9.6857782 7.49329559 10.1684314 7.97877869 10.66571045 8.47897339 C12.19858562 10.02299866 13.72434004 11.57384824 15.25 13.125 C16.29120361 14.17624009 17.33286541 15.22702657 18.375 16.27734375 C20.92199464 18.84633004 23.46265177 21.42148161 26 24 C31.80891746 19.18132753 37.13065552 13.98743592 42.4375 8.625 C43.67790039 7.37783203 43.67790039 7.37783203 44.94335938 6.10546875 C46.96455531 4.0725896 48.98336335 2.03740037 51 0 C54.76488042 1.72154788 57.15063897 3.99234114 60 7 C58.4152642 10.86328627 55.94043113 13.28876923 52.9921875 16.203125 C52.50670441 16.6857782 52.02122131 17.1684314 51.52102661 17.66571045 C49.97700134 19.19858562 48.42615176 20.72434004 46.875 22.25 C45.82375991 23.29120361 44.77297343 24.33286541 43.72265625 25.375 C41.15366996 27.92199464 38.57851839 30.46265177 36 33 C40.81867247 38.80891746 46.01256408 44.13065552 51.375 49.4375 C52.20644531 50.26443359 53.03789062 51.09136719 53.89453125 51.94335938 C55.9274104 53.96455531 57.96259963 55.98336335 60 58 C59.06725891 59.12894876 58.12859878 60.25300876 57.1875 61.375 C56.66542969 62.00148437 56.14335937 62.62796875 55.60546875 63.2734375 C54 65 54 65 51 67 C43.08 59.08 35.16 51.16 27 43 C22.93378044 46.48533105 19.11323733 49.76184853 15.37890625 53.5234375 C14.58935547 54.31621094 13.79980469 55.10898438 12.98632812 55.92578125 C12.18646484 56.73402344 11.38660156 57.54226562 10.5625 58.375 C9.73556641 59.20644531 8.90863281 60.03789062 8.05664062 60.89453125 C6.03544469 62.9274104 4.01663665 64.96259963 2 67 C0.87105124 66.06725891 -0.25300876 65.12859878 -1.375 64.1875 C-2.00148437 63.66542969 -2.62796875 63.14335937 -3.2734375 62.60546875 C-5 61 -5 61 -7 58 C-6.2980249 57.32420898 -5.5960498 56.64841797 -4.87280273 55.95214844 C-2.27544064 53.44518309 0.30542212 50.92178932 2.8815918 48.39306641 C3.99954232 47.30028398 5.12193584 46.21202796 6.2487793 45.12841797 C7.86652023 43.57122656 9.46765715 41.99852955 11.06640625 40.421875 C11.57466446 39.93942322 12.08292267 39.45697144 12.60658264 38.9598999 C15.24045607 36.41017916 15.24045607 36.41017916 16.11523438 32.98632812 C14.5062431 30.12057659 12.43309861 28.09995977 10.08984375 25.796875 C9.60294571 25.3142218 9.11604767 24.8315686 8.61439514 24.33428955 C7.0623455 22.7989915 5.50017864 21.27447075 3.9375 19.75 C2.88147643 18.7090278 1.82612962 17.6673686 0.77148438 16.625 C-1.81121415 14.07532367 -4.40308882 11.53520804 -7 9 C-5.27845212 5.23511958 -3.00765886 2.84936103 0 0 Z " fill="#F7B02A" transform="translate(194,103)"/>
<path d="M0 0 C3.96 0 7.92 0 12 0 C12.33 14.85 12.66 29.7 13 45 C18.28 39.72 23.56 34.44 29 29 C36 35 36 35 38 38 C27.77 48.23 17.54 58.46 7 69 C2.42498305 65.0785569 -1.93250354 61.20779837 -6.15234375 56.9453125 C-6.69734024 56.39890106 -7.24233673 55.85248962 -7.80384827 55.28952026 C-9.51746118 53.57037942 -11.22753444 51.84776796 -12.9375 50.125 C-14.10979204 48.94768362 -15.28231614 47.77059826 -16.45507812 46.59375 C-19.30606982 43.73182511 -22.15389615 40.86678543 -25 38 C-24.06725891 36.87105124 -23.12859878 35.74699124 -22.1875 34.625 C-21.66542969 33.99851563 -21.14335938 33.37203125 -20.60546875 32.7265625 C-19 31 -19 31 -16 29 C-8.575 36.425 -8.575 36.425 -1 44 C-0.67 29.48 -0.34 14.96 0 0 Z " fill="#F9F9FA" transform="translate(138,104)"/>
<path d="M0 0 C0.81032318 0.00075944 1.62064637 0.00151888 2.4555248 0.00230134 C3.38957352 -0.00168076 4.32362223 -0.00566286 5.28597546 -0.00976562 C6.31903297 -0.00393994 7.35209048 0.00188574 8.41645277 0.00788796 C9.5084701 0.00617911 10.60048743 0.00447026 11.72559619 0.00270963 C15.40926535 -0.00060217 19.09275503 0.01044622 22.7764076 0.02134621 C25.40721098 0.02190996 28.03801468 0.02159448 30.66881788 0.0204612 C36.34535196 0.01941096 42.02184017 0.02570208 47.69836271 0.03693688 C55.90572035 0.05317009 64.11305574 0.05839765 72.3204277 0.06091286 C85.63535676 0.0652934 98.95026136 0.0786122 112.26517713 0.09751809 C125.20169932 0.11586763 138.13821487 0.13002866 151.07474744 0.13853371 C151.87174982 0.13905916 152.66875219 0.13958461 153.48990615 0.14012598 C157.48811186 0.14273599 161.48631762 0.14526342 165.48452342 0.14774978 C198.66956382 0.16849344 231.85457424 0.2037287 265.03959119 0.24839699 C265.03959119 0.57839699 265.03959119 0.90839699 265.03959119 1.24839699 C264.20077158 1.24929263 264.20077158 1.24929263 263.34500611 1.25020635 C230.21845588 1.28608231 197.09201391 1.34269347 163.96555088 1.42631795 C159.9900686 1.43633568 156.0145859 1.44617976 152.03910291 1.45591652 C151.24763924 1.4578579 150.45617557 1.45979927 149.64072815 1.46179947 C136.81707938 1.49284013 123.99344852 1.50980588 111.16976926 1.52159122 C98.01635441 1.5339921 84.86303372 1.56146937 71.70967829 1.60301006 C63.59006843 1.62817603 55.47061465 1.64151202 47.35096523 1.63982657 C41.13001048 1.63979336 34.90928855 1.6607125 28.68840444 1.68956482 C26.13258253 1.69810973 23.57672736 1.69978291 21.02089727 1.69419968 C17.54058991 1.68760747 14.06124448 1.70536668 10.58103406 1.72941506 C9.05185917 1.71777443 9.05185917 1.71777443 7.49179184 1.70589864 C2.06749351 1.66116353 2.06749351 1.66116353 -2.49424899 4.28083336 C-2.97808173 4.93012936 -3.46191447 5.57942536 -3.96040881 6.24839699 C-4.62040881 6.24839699 -5.28040881 6.24839699 -5.96040881 6.24839699 C-3.23582385 0.41000066 -3.23582385 0.41000066 0 0 Z " fill="#6B6C70" transform="translate(7.960408806800842,81.75160300731659)"/>
</svg>
