<svg width="80" height="80" viewBox="0 0 80 80" fill="none" xmlns="http://www.w3.org/2000/svg">
<path fill-rule="evenodd" clip-rule="evenodd" d="M54.5371 62.5869C54.6427 62.3838 54.744 62.2044 54.8302 62.0188C54.8846 61.9 54.9684 61.8763 55.0865 61.8794C55.7946 61.8994 56.5027 61.9213 57.2115 61.9282C57.8134 61.9344 58.4165 61.9232 59.019 61.9163C59.6977 61.9082 60.3765 61.8725 61.0546 61.8919C61.9577 61.9182 62.8377 62.095 63.6546 62.4969C64.6302 62.9775 65.3684 63.7094 65.8715 64.6738C66.1878 65.2853 66.3852 65.9512 66.4534 66.6363C66.5609 67.6413 66.4902 68.6232 66.1715 69.5844C65.7765 70.7757 65.0265 71.6875 63.9846 72.3707C63.1827 72.8963 62.3034 73.2069 61.3609 73.3844C60.3634 73.5725 59.3627 73.5119 58.3621 73.515C57.2646 73.5194 56.1677 73.4957 55.0702 73.4832C54.8784 73.4813 54.8509 73.445 54.9015 73.2619L54.9484 73.0932C55.0552 72.7569 55.1127 72.7419 55.454 72.6857C55.6959 72.6476 55.9272 72.5597 56.1334 72.4275C56.2484 72.3513 56.2959 72.1525 56.3409 71.9994C56.3796 71.8657 56.3815 71.7188 56.3827 71.5775C56.3984 69.4369 56.4146 67.2969 56.4234 65.1575C56.4258 64.6164 56.4122 64.0753 56.3827 63.535C56.3615 63.1569 56.1596 62.8982 55.7096 62.8088C55.3596 62.7394 55.0071 62.6857 54.6552 62.6238L54.5371 62.5869ZM64.5846 67.77C64.5371 67.3438 64.514 66.9138 64.4377 66.4938C64.2552 65.4857 63.814 64.6075 63.039 63.9194C61.7859 62.8075 60.2771 62.6363 58.6959 62.7688C58.3359 62.7988 58.2584 62.9219 58.2527 63.2919C58.244 63.8169 58.2352 64.3419 58.2346 64.8669C58.2321 66.5319 58.2321 68.1969 58.2346 69.8619C58.2352 70.3357 58.2402 70.8094 58.254 71.2819C58.269 71.7657 58.4446 72.175 58.9184 72.3625C59.6652 72.6582 60.4509 72.6932 61.2346 72.5725C62.4865 72.3807 63.3621 71.6513 63.9496 70.5582C64.4146 69.6907 64.5459 68.7438 64.5846 67.77ZM67.6277 73.4394C67.6127 73.18 67.719 72.9657 67.8502 72.7688C67.8859 72.7157 68.0084 72.7182 68.0927 72.7013L68.809 72.5594C69.0621 72.5057 69.1952 72.3357 69.2309 72.0875C69.2546 71.9238 69.2771 71.7582 69.279 71.5925C69.296 70.282 69.3083 68.9713 69.3159 67.6607C69.3221 66.3482 69.3171 65.0357 69.3171 63.7232L69.3115 63.4725C69.2859 63.0507 69.0821 62.8319 68.6634 62.77L67.7552 62.6319C67.6434 62.6169 67.6027 62.5632 67.6434 62.4638C67.7134 62.2944 67.7802 62.1188 67.879 61.9663C67.9159 61.91 68.0402 61.8882 68.124 61.89C68.5577 61.8963 68.9915 61.9288 69.4252 61.9282L73.2009 61.9057C73.9284 61.905 74.6309 62.0319 75.2834 62.38C76.0015 62.7625 76.4034 63.3544 76.5184 64.1607C76.6384 65.0075 76.3815 65.7213 75.7627 66.2882C75.5084 66.5219 75.179 66.6744 74.884 66.8644L74.7877 66.9244C75.0615 67.025 75.3221 67.1119 75.5759 67.2157C76.3184 67.52 76.909 67.9957 77.2215 68.755C77.4684 69.3544 77.4684 69.9794 77.3221 70.6007C77.0946 71.5732 76.454 72.22 75.6209 72.7094C74.839 73.1688 73.9927 73.4363 73.0915 73.4813C72.2602 73.5232 71.4252 73.5075 70.5921 73.5169L70.1096 73.5194C69.3067 73.501 68.5037 73.481 67.7009 73.4594L67.6277 73.4394ZM71.0884 69.6338H71.0965C71.0965 70.045 71.0909 70.4563 71.0984 70.8675C71.1034 71.1338 71.094 71.4075 71.1515 71.6638C71.2377 72.0469 71.4127 72.3925 71.8427 72.5025C72.4176 72.6536 73.0181 72.68 73.604 72.58C74.3396 72.4519 74.9265 72.0832 75.2484 71.3825C75.4871 70.8619 75.5227 70.31 75.4409 69.7463C75.3321 69.0038 74.9377 68.465 74.2821 68.1119C73.8521 67.88 73.3934 67.7382 72.9046 67.7194C72.3571 67.6988 71.809 67.6975 71.2615 67.6807C71.1077 67.6763 71.0865 67.7544 71.0871 67.8807C71.0902 68.4644 71.0884 69.0488 71.0884 69.6338ZM72.254 66.8369C72.5534 66.8219 72.8921 66.8175 73.229 66.7838C73.874 66.7194 74.3284 66.395 74.5652 65.7782C74.6859 65.465 74.6809 65.1425 74.684 64.8169C74.6934 63.9688 74.1984 63.2738 73.3927 62.9863C72.7709 62.7644 72.1296 62.7607 71.4846 62.7782C71.2234 62.785 71.1065 62.8994 71.1027 63.1625L71.064 66.5932C71.0621 66.7294 71.1209 66.7882 71.2534 66.7925L72.254 66.8369Z" fill="#94795D"/>
<path fill-rule="evenodd" clip-rule="evenodd" d="M6.58943 72.78L6.5438 73.37C6.1188 73.37 5.72693 73.3669 5.33505 73.3713C4.59693 73.3788 3.8588 73.3907 3.12005 73.4013L3.0488 73.4057C2.94318 73.3932 2.7513 73.3932 2.7463 73.3619C2.71505 73.1863 2.72505 73.0019 2.73318 72.82C2.7338 72.7994 2.80568 72.7732 2.84755 72.7632L3.42193 72.635C3.78005 72.5419 3.9063 72.3875 3.92318 72.0175C3.94255 71.6007 3.96193 71.1832 3.9638 70.7663C3.96943 69.74 3.96318 68.715 3.96755 67.6888C3.96818 67.4488 3.88505 67.27 3.6613 67.1725C3.39542 67.0545 3.12768 66.9408 2.85818 66.8313C2.73068 66.78 2.56505 66.7519 2.58005 66.5807C2.59505 66.4063 2.75568 66.3607 2.90693 66.3263C3.53318 66.1832 4.16005 66.0438 4.78443 65.8913C4.98568 65.8419 5.17818 65.7588 5.4188 65.675C5.4313 65.805 5.45443 65.9288 5.45193 66.0525L5.41505 66.6407C5.41443 66.7069 5.4488 66.7957 5.49818 66.8325C5.52818 66.8557 5.6288 66.8138 5.6788 66.775C6.21255 66.3688 6.77755 66.0182 7.42193 65.8138C8.42005 65.4969 9.27693 65.7907 9.87693 66.6513C10.0882 66.9544 10.0888 66.9544 10.3819 66.7425C10.8851 66.3769 11.4113 66.0544 12.0001 65.8419C13.2926 65.375 14.5344 65.9675 14.9838 67.2694C15.1476 67.7419 15.2101 68.23 15.2088 68.7288L15.1969 72.04C15.1963 72.3132 15.2869 72.4688 15.5469 72.5538C15.8388 72.6494 16.1413 72.715 16.4701 72.8013L16.3938 73.3707C16.0201 73.3707 15.6763 73.3682 15.3326 73.3713C14.4926 73.3788 13.6526 73.3832 12.8132 73.4025C12.6669 73.4063 12.6288 73.37 12.6213 73.2332C12.5969 72.795 12.5932 72.7957 13.0057 72.6969L13.1444 72.6613C13.5476 72.5513 13.6819 72.4275 13.6851 72.0188C13.6944 70.845 13.7188 69.6682 13.6594 68.4969C13.5976 67.2819 12.6332 66.635 11.4557 66.9463C11.0756 67.0504 10.7177 67.2228 10.3994 67.455C10.2901 67.5332 10.2694 67.6232 10.2782 67.76C10.3113 68.2775 10.3319 68.7957 10.3363 69.3138C10.3438 70.2207 10.3326 71.1275 10.3363 72.035C10.3376 72.4025 10.4632 72.5432 10.8263 72.6282L11.3657 72.7525L11.4657 72.775C11.4732 72.9475 11.4801 73.12 11.4719 73.2925C11.4669 73.4007 11.3832 73.41 11.2894 73.4082C10.7651 73.395 10.2401 73.3775 9.71568 73.3788C9.07755 73.38 8.44005 73.3982 7.80255 73.4094H7.65255C7.65255 73.2263 7.6438 73.0513 7.6588 72.8769C7.66193 72.835 7.73568 72.7763 7.7863 72.7632L8.41505 72.63C8.68193 72.5644 8.80943 72.4275 8.82443 72.1563C8.89568 70.9 8.94693 69.6432 8.8288 68.3875C8.80001 68.1396 8.7312 67.8979 8.62505 67.6719C8.30318 66.9607 7.5788 66.6638 6.74318 66.8775C6.3463 66.9788 5.98818 67.1607 5.64943 67.39C5.57556 67.4355 5.51488 67.4996 5.47343 67.5758C5.43198 67.652 5.41121 67.7377 5.41318 67.8244C5.41318 69.0775 5.41755 70.3307 5.4213 71.5832L5.42818 72.0663C5.43568 72.4032 5.5788 72.5807 5.91318 72.6532C6.12818 72.7019 6.34568 72.735 6.58943 72.78Z" fill="#50382B"/>
<path fill-rule="evenodd" clip-rule="evenodd" d="M44.3757 65.8032C44.4726 66.2744 44.4707 66.6982 44.1245 67.0194C43.7807 67.3388 43.3457 67.2313 42.9214 67.16C42.9607 67.3838 43.0045 67.5738 43.0257 67.7663C43.1801 69.1969 42.5645 70.2588 41.2376 70.8657C40.7364 71.0944 40.2045 71.1794 39.6614 71.2232C39.3914 71.2444 39.1551 71.4507 39.1295 71.6725C39.1032 71.8975 39.2445 72.1288 39.527 72.1963C39.8601 72.2757 40.2076 72.2982 40.5495 72.3375C41.2832 72.4213 42.0251 72.4594 42.7501 72.5907C43.8464 72.7882 44.4582 73.745 44.2651 74.8463C44.0932 75.8263 43.5257 76.5394 42.7345 77.0863C41.4014 78.01 39.9389 78.2801 38.3814 77.8088C37.4907 77.5388 36.8626 76.9532 36.6457 76.0057C36.537 75.5313 36.6526 75.1019 37.0095 74.7801C37.4339 74.3988 37.8957 74.0588 38.3401 73.6988L38.4839 73.5544L38.3189 73.4388C37.8657 73.2238 37.5032 72.9294 37.3626 72.4182C37.3145 72.245 37.3645 72.1313 37.5114 72.0425C37.7614 71.8919 38.0101 71.7388 38.257 71.5832C38.3732 71.5107 38.4882 71.4357 38.5964 71.3519C38.7439 71.2394 38.7307 71.1557 38.5545 71.0907C38.1445 70.9394 37.7801 70.72 37.4976 70.3825C37.0257 69.8194 36.892 69.1488 36.9307 68.4407C36.9914 67.3344 37.592 66.6057 38.5682 66.1369C39.7289 65.58 40.8932 65.545 42.0764 66.0525C42.5139 66.24 42.9751 66.28 43.4445 66.2475C43.7951 66.2225 44.1014 66.09 44.3757 65.8032ZM40.0989 73.7288C39.2276 73.7213 38.9545 73.8288 38.4432 74.3494C37.8707 74.9332 37.8739 75.7425 38.4451 76.3288C38.8789 76.7732 39.4201 76.9813 40.022 77.0438C40.7251 77.1163 41.4176 77.0869 42.0564 76.7351C42.7376 76.3582 43.0764 75.6582 42.9232 74.9532C42.7964 74.3713 42.3676 74.105 41.8457 73.9519C41.252 73.7782 40.6382 73.7451 40.0989 73.7288ZM38.3876 68.1613C38.4195 68.4032 38.4326 68.6482 38.4864 68.885C38.6257 69.4988 38.8926 70.0382 39.5032 70.3113C40.2201 70.6332 41.1357 70.495 41.4495 69.4888C41.6638 68.8191 41.6389 68.0958 41.3789 67.4425C41.2687 67.1439 41.0703 66.8859 40.8101 66.7025C40.1876 66.2682 39.0645 66.2107 38.607 67.1707C38.4582 67.4825 38.4001 67.8144 38.3876 68.1613Z" fill="#4F382B"/>
<path fill-rule="evenodd" clip-rule="evenodd" d="M29.5936 65.6487C29.6167 65.7556 29.663 65.8769 29.6642 65.9987C29.6661 66.2306 29.6411 66.4625 29.628 66.6944V66.8956L29.8242 66.7456C30.3617 66.3031 30.9392 65.9262 31.6117 65.7231C32.8255 65.3575 34.038 66.0219 34.4336 67.2581C34.5836 67.7281 34.643 68.2112 34.6486 68.7025C34.6611 69.7937 34.6686 70.885 34.6798 71.9762C34.6836 72.3681 34.7286 72.4381 35.0992 72.5512C35.3101 72.6142 35.5252 72.662 35.743 72.6944C35.8623 72.7131 35.9136 72.76 35.9073 72.8769L35.9086 72.9844C35.9042 73.4362 35.873 73.4569 35.4348 73.4556C34.3861 73.4537 33.338 73.46 32.2892 73.4687C31.9767 73.4712 31.9761 73.4806 31.9448 73.1719L31.9386 72.9944C31.958 72.7281 31.9642 72.7306 32.2261 72.6919C32.4023 72.6656 32.5773 72.625 32.7492 72.58C32.9261 72.5344 33.0111 72.4037 33.0348 72.2287C33.0467 72.14 33.0623 72.0512 33.0617 71.9625C33.0467 70.77 33.0661 69.5762 33.0011 68.3856C32.9486 67.4225 32.2136 66.8487 31.2467 66.9144C30.7806 66.9467 30.3326 67.1074 29.9523 67.3787C29.6942 67.5594 29.6423 67.82 29.6436 68.1006C29.6486 69.2156 29.6592 70.3306 29.6711 71.4462C29.6736 71.6906 29.6805 71.935 29.7036 72.1775C29.728 72.4425 29.8211 72.5494 30.0811 72.6069C30.3298 72.6619 30.5836 72.6937 30.8492 72.7381L30.8717 72.9431C30.8805 73.4212 30.8305 73.4569 30.3661 73.455C29.2817 73.4506 28.1973 73.4575 27.1136 73.4694C26.943 73.4719 26.8705 73.4181 26.8748 73.2519L26.8723 73.1806C26.8442 72.75 26.8567 72.7337 27.2642 72.6637L27.4567 72.625C27.898 72.5256 28.0111 72.4081 28.0173 71.96C28.038 70.5406 28.0455 69.1219 28.0598 67.7025C28.0617 67.4987 27.9848 67.3406 27.7948 67.2562C27.5282 67.1394 27.26 67.0261 26.9905 66.9162C26.8417 66.855 26.6717 66.8162 26.6661 66.6106C26.6623 66.4656 26.8173 66.3375 27.0292 66.2944C27.4548 66.2081 27.8842 66.1362 28.3048 66.0306C28.7236 65.9262 29.1348 65.7862 29.5936 65.6487Z" fill="#4F372B"/>
<path fill-rule="evenodd" clip-rule="evenodd" d="M53.0406 69.3561C53.0206 70.6818 52.6762 71.7536 51.7387 72.558C50.5512 73.5786 48.6987 73.9255 47.1843 73.1624C46.5381 72.8368 46.0631 72.3374 45.7537 71.6893C45.2793 70.6924 45.1606 69.6443 45.4081 68.5705C45.6531 67.5086 46.2962 66.7393 47.2587 66.2411C48.2487 65.7293 49.2912 65.5293 50.3906 65.798C51.7812 66.1374 52.7806 67.2711 52.9793 68.7149C53.015 68.968 53.0287 69.2243 53.0406 69.3561ZM51.43 70.0743L51.3762 70.068C51.3762 69.943 51.3831 69.818 51.375 69.693C51.3293 68.9143 51.1543 68.1724 50.7031 67.5205C50.275 66.903 49.6918 66.5386 48.9331 66.4855C48.0837 66.4255 47.37 66.9005 47.1193 67.768C46.7431 69.0705 46.8706 70.3399 47.5318 71.533C47.82 72.053 48.2468 72.4368 48.8187 72.6386C49.9393 73.033 50.9331 72.5224 51.225 71.3749C51.3325 70.9511 51.3637 70.508 51.43 70.0743Z" fill="#4F382B"/>
<path fill-rule="evenodd" clip-rule="evenodd" d="M25.5117 69.4588C25.4886 70.4101 25.2642 71.2895 24.6767 72.0538C24.0474 72.8726 23.1824 73.3101 22.1986 73.4945C21.0355 73.712 19.943 73.5145 19.0086 72.7338C18.5649 72.3626 18.2617 71.887 18.0617 71.3457C17.7336 70.4582 17.6517 69.5488 17.8536 68.622C18.0692 67.6301 18.6292 66.872 19.4974 66.3632C20.5011 65.7763 21.5842 65.5145 22.7411 65.7782C24.2286 66.1182 25.0874 67.0876 25.4049 68.5551C25.4686 68.8513 25.4774 69.1576 25.5117 69.4588ZM23.883 70.0863L23.8399 70.0801V69.9013C23.8155 69.0288 23.6449 68.1976 23.1242 67.4726C22.7386 66.9345 22.2224 66.597 21.5605 66.5026C20.4817 66.3488 19.7767 66.9888 19.543 67.8582C19.238 68.9938 19.3336 70.1157 19.8055 71.1926C20.0999 71.8638 20.5649 72.387 21.2792 72.6407C22.393 73.0363 23.4017 72.5126 23.6836 71.3695C23.7874 70.9513 23.8186 70.5151 23.883 70.0863Z" fill="#4F372B"/>
<path fill-rule="evenodd" clip-rule="evenodd" d="M51.4763 20.9651C52.2432 23.182 52.7944 25.4451 52.9763 27.7901C53.2013 30.7001 53.0988 33.5901 52.485 36.452L52.4063 36.6807C52.2138 36.6813 52.0175 36.657 51.8294 36.6863C50.24 36.9363 48.6525 37.1951 47.0644 37.4526C45.4225 37.7188 43.7794 37.9745 42.1407 38.2582C41.56 38.3582 40.8413 38.2388 40.6069 39.0413L40.4944 39.0795L40.5738 34.2807L40.4932 22.702L41.2582 22.5707C42.5088 22.3663 43.7594 22.1582 45.0119 21.9588C46.5057 21.722 48.0007 21.4907 49.4957 21.2595C50.1557 21.1582 50.8163 21.0638 51.4763 20.9651Z" fill="#439934"/>
<path fill-rule="evenodd" clip-rule="evenodd" d="M38.9159 53.0694C38.1091 52.3757 37.2741 51.7126 36.5009 50.9826C32.3397 47.0576 29.2953 42.4369 27.7959 36.8663C27.3828 35.3338 27.1078 33.7757 27.0191 32.1919C26.9566 31.0832 26.8672 29.9651 26.9459 28.8619C27.1541 25.9288 27.5784 23.0238 28.4384 20.1982L28.4859 20.1326C28.5697 20.2438 28.6897 20.3426 28.7322 20.4682C29.5722 22.9407 30.4053 25.4157 31.2347 27.8926C33.8403 35.6744 36.4428 43.4582 39.0528 51.2388C39.1041 51.3907 39.2359 51.5151 39.3309 51.6519L38.9159 53.0694Z" fill="#45A538"/>
<path fill-rule="evenodd" clip-rule="evenodd" d="M51.4766 20.9649C50.816 21.063 50.1554 21.158 49.496 21.2593C48.001 21.4905 46.506 21.7218 45.0123 21.9587C43.7604 22.1574 42.5098 22.3655 41.2585 22.5705L40.4935 22.7018L40.4873 22.203C40.4616 21.793 40.4191 21.383 40.4135 20.973L40.3279 13.1268C40.3079 11.4899 40.2779 9.85303 40.2448 8.21678C40.2279 7.19979 40.1985 6.18304 40.1566 5.16678C40.1316 4.62115 40.0435 4.07803 40.0085 3.5324C39.9879 3.21865 40.0154 2.9024 40.0223 2.5874C40.4123 3.34303 40.7941 4.10428 41.1948 4.85428C41.8279 6.0399 42.8373 6.91365 43.7466 7.86678C47.3379 11.6362 49.8873 16.0162 51.4766 20.9649Z" fill="#46A037"/>
<path fill-rule="evenodd" clip-rule="evenodd" d="M40.4951 39.0793L40.6076 39.0412C40.842 38.2387 41.5607 38.358 42.1414 38.258C43.7801 37.9743 45.4232 37.7187 47.0651 37.4524C48.6532 37.1955 50.2407 36.9368 51.8301 36.6862C52.0182 36.6568 52.2145 36.6812 52.407 36.6805C52.1101 37.7405 51.8764 38.8237 51.4995 39.8543C51.0714 41.023 50.5539 42.1643 50.0045 43.283C49.1815 44.9514 48.1634 46.5161 46.9714 47.9443C46.0551 49.0455 45.0339 50.0649 44.0107 51.0705C43.4445 51.6262 42.7782 52.0793 42.157 52.5793L41.9957 52.4693L41.4164 51.9743L40.817 50.6593C40.4075 49.1258 40.184 47.5486 40.1514 45.9618L40.1626 45.6943L40.2445 44.5355C40.2714 44.1399 40.3076 43.7449 40.3245 43.3493C40.3845 41.9268 40.4382 40.503 40.4951 39.0793Z" fill="#409433"/>
<path fill-rule="evenodd" clip-rule="evenodd" d="M40.4947 39.0793C40.4385 40.503 40.3847 41.9274 40.3241 43.3512C40.3072 43.7474 40.2716 44.1424 40.2441 44.5374L39.8791 44.6755C39.0679 42.2874 38.256 39.9243 37.4622 37.5555C36.1491 33.6362 34.8522 29.7112 33.541 25.7905C32.4821 22.6264 31.4159 19.4647 30.3422 16.3055C30.2916 16.158 30.1479 16.0418 30.0479 15.9112L32.3854 11.613C32.466 11.7524 32.5716 11.883 32.6222 12.033C33.7035 15.233 34.7829 18.4337 35.8529 21.6374C37.2454 25.8062 38.6285 29.9768 40.0197 34.1462C40.0754 34.3124 40.1666 34.4662 40.2541 34.653L40.5741 34.2805L40.4947 39.0793Z" fill="#4FAA41"/>
<path fill-rule="evenodd" clip-rule="evenodd" d="M30.0479 15.9111C30.1485 16.0418 30.2922 16.158 30.3422 16.3055C31.416 19.4646 32.4822 22.6263 33.541 25.7905C34.8522 29.7111 36.1491 33.6361 37.4622 37.5555C38.256 39.9243 39.0679 42.2868 39.8791 44.6755L40.2441 44.5374L40.1622 45.6961L40.0879 45.963C39.961 47.2311 39.8541 48.5018 39.6991 49.7674C39.6216 50.4018 39.456 51.0243 39.3304 51.6518C39.236 51.5149 39.1035 51.3905 39.0522 51.2386C36.4416 43.458 33.8397 35.6743 31.2341 27.8924C30.4051 25.4159 29.5709 22.9411 28.7316 20.468C28.6891 20.3424 28.5691 20.2436 28.4854 20.1324L30.0479 15.9111Z" fill="#4AA73C"/>
<path fill-rule="evenodd" clip-rule="evenodd" d="M40.5735 34.2805L40.2535 34.653C40.166 34.4662 40.0748 34.3124 40.0191 34.1462C38.6279 29.9768 37.2448 25.8062 35.8523 21.6374C34.781 18.4341 33.7041 15.2326 32.6216 12.033C32.571 11.883 32.4654 11.7524 32.3848 11.613L35.2754 7.81055C35.3666 7.9318 35.4966 8.03992 35.5435 8.1768C36.346 10.5268 37.141 12.8787 37.9323 15.2324C38.671 17.4312 39.3985 19.6324 40.146 21.8274C40.196 21.9743 40.3704 22.078 40.4866 22.203L40.4929 22.7018L40.5735 34.2805Z" fill="#57AE47"/>
<path fill-rule="evenodd" clip-rule="evenodd" d="M40.4866 22.2031C40.3698 22.0788 40.196 21.975 40.146 21.8275C39.3991 19.6325 38.671 17.4313 37.9323 15.2325C37.1416 12.8787 36.3454 10.5269 35.5435 8.17689C35.4966 8.04001 35.3666 7.93188 35.2754 7.81063C36.2154 6.89001 37.126 5.93626 38.1041 5.05814C38.9735 4.27814 39.6723 3.44188 39.7048 2.20876L39.7735 1.96313L40.021 2.58688C40.0148 2.90188 39.9866 3.21813 40.0073 3.53188C40.0429 4.07751 40.131 4.62063 40.1554 5.16626C40.201 6.18188 40.2229 7.19938 40.2435 8.21626C40.2766 9.85251 40.3066 11.4894 40.3266 13.1263L40.4123 20.9725C40.4185 21.3831 40.4616 21.7931 40.4866 22.2031Z" fill="#60B24F"/>
<path fill-rule="evenodd" clip-rule="evenodd" d="M39.3307 51.6513C39.4563 51.0238 39.6219 50.4013 39.6994 49.7669C39.8544 48.5019 39.9613 47.2306 40.0882 45.9625L40.12 45.9575L40.1513 45.9631C40.1839 47.55 40.4074 49.1272 40.8169 50.6606C40.7325 50.7719 40.6144 50.87 40.5694 50.995C40.2225 51.9738 39.895 52.9606 39.5463 53.9388C39.4988 54.0725 39.365 54.1769 39.2719 54.2938L38.915 53.0688L39.3307 51.6513Z" fill="#A9AA88"/>
<path fill-rule="evenodd" clip-rule="evenodd" d="M39.2715 54.2943C39.3646 54.1768 39.4984 54.073 39.5459 53.9393C39.8946 52.9611 40.2221 51.9743 40.569 50.9955C40.6134 50.8705 40.7321 50.7724 40.8165 50.6611L41.4159 51.9761C41.2977 52.1436 41.134 52.2955 41.0684 52.4824L39.9209 55.8524C39.8734 55.988 39.7127 56.083 39.604 56.1974L39.2715 54.2943Z" fill="#B6B598"/>
<path fill-rule="evenodd" clip-rule="evenodd" d="M39.6045 56.1968C39.7126 56.0825 39.8739 55.9875 39.9214 55.8518L41.0689 52.4818C41.1339 52.295 41.2982 52.1431 41.4164 51.9756L41.9964 52.47C41.7164 52.7468 41.5607 53.0668 41.6545 53.4712L41.4782 54.0481C41.3982 54.1468 41.282 54.2331 41.2426 54.3462C40.842 55.4937 40.4601 56.6475 40.0564 57.7943C40.0051 57.9393 39.8632 58.0537 39.7639 58.1825L39.6045 56.1968Z" fill="#C2C1A7"/>
<path fill-rule="evenodd" clip-rule="evenodd" d="M39.7634 58.182C39.8634 58.0532 40.0053 57.9389 40.0559 57.7939C40.4597 56.647 40.8422 55.4932 41.2422 54.3457C41.2815 54.2326 41.3978 54.147 41.4778 54.0476L41.2347 56.6951C41.1697 56.7701 41.0759 56.8357 41.0447 56.9226L40.2359 59.2401C40.179 59.3982 40.0703 59.5395 39.9853 59.6876C39.9097 59.5889 39.7747 59.4932 39.7684 59.3907C39.7447 58.9895 39.7615 58.5851 39.7634 58.182Z" fill="#CECDB7"/>
<path fill-rule="evenodd" clip-rule="evenodd" d="M39.9854 59.6881C40.0704 59.5399 40.1791 59.3987 40.236 59.2406L41.0447 56.9231C41.076 56.8356 41.1703 56.7706 41.2347 56.6956L41.241 58.4331L40.6591 59.9249L39.9854 59.6881Z" fill="#DBDAC7"/>
<path fill-rule="evenodd" clip-rule="evenodd" d="M40.6592 59.925L41.2411 58.4331L41.3611 60.1981L40.6592 59.925Z" fill="#EBE9DC"/>
<path fill-rule="evenodd" clip-rule="evenodd" d="M41.654 53.4712C41.5609 53.0675 41.7159 52.7475 41.9959 52.47L42.1572 52.58L41.654 53.4712Z" fill="#CECDB7"/>
<path fill-rule="evenodd" clip-rule="evenodd" d="M40.151 45.9638L40.1198 45.9582L40.0879 45.9632L40.1623 45.6963L40.151 45.9638Z" fill="#4FAA41"/>
</svg>
