<svg width="80" height="80" viewBox="0 0 80 80" fill="none" xmlns="http://www.w3.org/2000/svg">
<path d="M71.4534 50.468C71.2721 50.468 71.0921 50.4205 70.9334 50.328L69.2772 49.348C69.0297 49.2099 69.1503 49.1605 69.2322 49.1324C69.5622 49.0174 69.629 48.9905 69.9809 48.7918C70.0178 48.7711 70.0659 48.7786 70.104 48.8011L71.3759 49.5568C71.3996 49.5694 71.426 49.576 71.4528 49.576C71.4796 49.576 71.506 49.5694 71.5296 49.5568L76.4903 46.6936C76.5136 46.6799 76.533 46.6602 76.5463 46.6366C76.5597 46.6131 76.5667 46.5864 76.5665 46.5593V40.8343C76.5666 40.8068 76.5595 40.7797 76.546 40.7558C76.5326 40.7318 76.5131 40.7117 76.4897 40.6974L71.5309 37.8368C71.5074 37.8239 71.4811 37.8171 71.4543 37.8171C71.4276 37.8171 71.4012 37.8239 71.3778 37.8368L66.4197 40.698C66.3961 40.7122 66.3766 40.7322 66.363 40.756C66.3493 40.7799 66.3419 40.8068 66.3415 40.8343V46.5593C66.3415 46.6143 66.3722 46.6661 66.4197 46.6918L67.7784 47.4774C68.5159 47.8455 68.9678 47.4118 68.9678 46.9755V41.3224C68.9678 41.243 69.0322 41.1799 69.1115 41.1799H69.7409C69.819 41.1799 69.884 41.243 69.884 41.3224V46.9755C69.884 47.9593 69.3484 48.5236 68.4153 48.5236C68.1284 48.5236 67.9028 48.5236 67.2728 48.2136L65.9721 47.4649C65.8139 47.3727 65.6826 47.2406 65.5914 47.0818C65.5002 46.923 65.4521 46.743 65.4521 46.5599V40.8349C65.4521 40.463 65.6503 40.1161 65.9721 39.9311L70.9328 37.0643C71.0926 36.9772 71.2717 36.9316 71.4537 36.9316C71.6357 36.9316 71.8148 36.9772 71.9746 37.0643L76.9353 39.9311C77.2565 40.1168 77.4559 40.4636 77.4559 40.8349V46.5599C77.4556 46.743 77.4074 46.9229 77.316 47.0817C77.2247 47.2404 77.0934 47.3726 76.9353 47.4649L71.9746 50.3286C71.8163 50.4205 71.6364 50.4686 71.4534 50.468ZM72.9865 46.5236C70.8146 46.5236 70.3603 45.5268 70.3603 44.6911C70.3604 44.6531 70.3757 44.6167 70.4026 44.5899C70.4295 44.5631 70.466 44.548 70.504 44.548H71.1453C71.1796 44.5479 71.2128 44.56 71.2389 44.5823C71.2651 44.6045 71.2824 44.6354 71.2878 44.6693C71.384 45.3224 71.6734 45.6518 72.9865 45.6518C74.0309 45.6518 74.4759 45.4155 74.4759 44.8605C74.4759 44.5405 74.3497 44.3036 72.7259 44.1443C71.3684 44.0099 70.529 43.7105 70.529 42.6236C70.529 41.623 71.3728 41.0255 72.7865 41.0255C74.3759 41.0255 75.1622 41.5774 75.2615 42.7611C75.2631 42.7811 75.2606 42.8011 75.2541 42.82C75.2477 42.8389 75.2374 42.8563 75.224 42.8711C75.2104 42.8854 75.1942 42.8967 75.1761 42.9046C75.1581 42.9124 75.1387 42.9165 75.119 42.9168H74.4746C74.4421 42.9168 74.4106 42.9057 74.3852 42.8854C74.3599 42.865 74.3423 42.8366 74.3353 42.8049C74.1803 42.1174 73.8053 41.898 72.7859 41.898C71.6453 41.898 71.5128 42.2961 71.5128 42.593C71.5128 42.9536 71.669 43.0586 73.2097 43.2624C74.734 43.4643 75.4584 43.7493 75.4584 44.8211C75.459 45.9043 74.5578 46.5236 72.9865 46.5236Z" fill="#83CD29"/>
<path d="M61.2388 42.7687C61.4344 42.6543 61.555 42.4456 61.555 42.2187V40.7474C61.555 40.5212 61.435 40.3124 61.2388 40.198L56.0112 37.163C55.9146 37.1068 55.8048 37.0771 55.693 37.0769C55.5812 37.0767 55.4713 37.106 55.3744 37.1618L50.1144 40.1987C50.0179 40.2545 49.9378 40.3347 49.8821 40.4312C49.8264 40.5278 49.797 40.6372 49.7969 40.7487V46.8212C49.7969 47.0493 49.9194 47.2605 50.1181 47.3737L55.345 50.3518C55.5375 50.4624 55.7738 50.463 55.9681 50.3555L59.1294 48.598C59.1786 48.5707 59.2197 48.5308 59.2484 48.4824C59.2771 48.434 59.2924 48.3789 59.2928 48.3226C59.2932 48.2663 59.2786 48.2109 59.2505 48.1621C59.2225 48.1133 59.182 48.0729 59.1331 48.0449L53.8406 45.0074C53.7921 44.9798 53.7517 44.9398 53.7236 44.8915C53.6955 44.8432 53.6807 44.7883 53.6806 44.7324V42.8287C53.6806 42.7149 53.7412 42.6105 53.8394 42.5543L55.4875 41.6043C55.5356 41.5764 55.5903 41.5617 55.6459 41.5617C55.7016 41.5617 55.7562 41.5764 55.8044 41.6043L57.4525 42.5543C57.5008 42.582 57.541 42.6219 57.569 42.6701C57.597 42.7183 57.6118 42.773 57.6119 42.8287V44.3262C57.6115 44.3822 57.6261 44.4373 57.6539 44.4858C57.6818 44.5344 57.7221 44.5747 57.7706 44.6026C57.8191 44.6306 57.8742 44.6452 57.9302 44.6449C57.9862 44.6446 58.0411 44.6296 58.0894 44.6012L61.2388 42.7687Z" fill="#404137"/>
<path d="M55.6149 42.4836C55.6335 42.4732 55.6545 42.4678 55.6759 42.4678C55.6972 42.4678 55.7182 42.4732 55.7368 42.4836L56.7462 43.0668C56.7837 43.0886 56.8068 43.1293 56.8068 43.1724V44.338C56.8068 44.3818 56.7837 44.4218 56.7462 44.4436L55.7368 45.0261C55.7183 45.0369 55.6973 45.0426 55.6759 45.0426C55.6544 45.0426 55.6334 45.0369 55.6149 45.0261L54.6062 44.4436C54.5875 44.433 54.572 44.4177 54.5613 44.3991C54.5505 44.3805 54.5449 44.3595 54.5449 44.338V43.1724C54.5449 43.1293 54.568 43.0886 54.6062 43.0668L55.6149 42.4836Z" fill="#83CD29"/>
<path d="M41.9269 44.9087C41.9269 44.965 41.8969 45.0175 41.8475 45.0462L40.0413 46.0875C40.0172 46.1016 39.9898 46.109 39.9619 46.109C39.934 46.109 39.9066 46.1016 39.8825 46.0875L38.0762 45.0462C38.0522 45.0322 38.0321 45.0122 38.0182 44.9881C38.0043 44.9639 37.9969 44.9366 37.9969 44.9087V42.8225C37.9969 42.7662 38.0275 42.7131 38.0762 42.6844L39.8825 41.6419C39.9066 41.6274 39.9341 41.6198 39.9622 41.6198C39.9903 41.6198 40.0178 41.6274 40.0419 41.6419L41.8487 42.6844C41.8727 42.6986 41.8925 42.7188 41.9063 42.743C41.9201 42.7672 41.9274 42.7946 41.9275 42.8225V44.9087H41.9269ZM42.415 29.4612C42.3666 29.4348 42.3121 29.4213 42.2569 29.4222C42.2017 29.423 42.1477 29.4382 42.1001 29.4661C42.0525 29.4941 42.013 29.5339 41.9854 29.5816C41.9577 29.6294 41.943 29.6835 41.9425 29.7387V37.8106C41.9423 37.8495 41.9321 37.8877 41.9127 37.9215C41.8933 37.9552 41.8654 37.9834 41.8319 38.0031C41.798 38.0224 41.7596 38.0326 41.7206 38.0326C41.6816 38.0326 41.6433 38.0224 41.6094 38.0031L40.2919 37.2437C40.1954 37.1882 40.086 37.1589 39.9747 37.1589C39.8634 37.1589 39.754 37.1882 39.6575 37.2437L34.3962 40.28C34.2996 40.3358 34.2193 40.416 34.1635 40.5127C34.1076 40.6093 34.0782 40.719 34.0781 40.8306V46.905C34.0781 47.1318 34.1994 47.3412 34.3956 47.4556L39.6569 50.4937C39.8531 50.6075 40.0956 50.6075 40.2925 50.4937L45.555 47.4556C45.6515 47.3996 45.7316 47.3193 45.7873 47.2227C45.843 47.1261 45.8724 47.0165 45.8725 46.905V31.7631C45.8725 31.5331 45.7475 31.3206 45.5469 31.2081L42.415 29.4612Z" fill="#404137"/>
<path d="M23.8991 37.1295C23.9956 37.0736 24.1051 37.0442 24.2166 37.0442C24.3281 37.0442 24.4377 37.0736 24.5341 37.1295L29.7954 40.1651C29.9916 40.2788 30.1129 40.4888 30.1129 40.7157V46.792C30.1129 47.0188 29.9916 47.2288 29.7954 47.3426L24.5348 50.3807C24.4381 50.4363 24.3285 50.4656 24.217 50.4656C24.1054 50.4656 23.9958 50.4363 23.8991 50.3807L18.6398 47.3426C18.5433 47.2866 18.4632 47.2063 18.4075 47.1097C18.3518 47.013 18.3224 46.9035 18.3223 46.792V40.7151C18.3223 40.4888 18.4435 40.2788 18.6398 40.1651L23.8991 37.1295Z" fill="#83CD29"/>
<path d="M14.3314 40.665C14.3314 40.4363 14.2114 40.2263 14.0139 40.1132L8.75449 37.0863C8.66616 37.0351 8.56654 37.0065 8.46449 37.0032H8.41012C8.30809 37.0066 8.20848 37.0352 8.12012 37.0863L2.86012 40.1132C2.76335 40.1692 2.68302 40.2497 2.62718 40.3465C2.57135 40.4434 2.54197 40.5532 2.54199 40.665L2.55324 48.815C2.55324 48.9288 2.61262 49.0344 2.71199 49.0894C2.75958 49.1183 2.81416 49.1335 2.8698 49.1335C2.92545 49.1335 2.98003 49.1183 3.02762 49.0894L6.15262 47.2994C6.35012 47.1819 6.47074 46.975 6.47074 46.7482V42.9407C6.47074 42.7132 6.59074 42.5038 6.78762 42.39L8.11887 41.6238C8.21509 41.5673 8.32476 41.5377 8.43637 41.5382C8.54512 41.5382 8.65637 41.5657 8.75324 41.6238L10.0832 42.39C10.2801 42.5038 10.4014 42.7132 10.4014 42.9407V46.7482C10.4014 46.975 10.5232 47.1832 10.7195 47.2994L13.8445 49.0894C13.8927 49.117 13.9472 49.1314 14.0027 49.1312C14.0582 49.1311 14.1127 49.1164 14.1608 49.0887C14.2089 49.0609 14.2488 49.021 14.2766 48.973C14.3045 48.925 14.3193 48.8705 14.3195 48.815L14.3314 40.665Z" fill="#404137"/>
</svg>
