<svg width="80" height="80" viewBox="0 0 80 80" fill="none" xmlns="http://www.w3.org/2000/svg">
<path d="M40.0029 16.0012C29.3361 16.0012 22.6717 21.3325 20.0029 31.9993C24.0017 26.6675 28.6698 24.6681 34.0017 26.0012C37.0461 26.76 39.2217 28.9675 41.6311 31.4137C45.5523 35.3931 50.0911 40 60.0029 40C70.6692 40 77.3342 34.6681 80.0029 23.9987C76.0036 29.3337 71.3361 31.3331 66.0036 30C62.9598 29.2406 60.7867 27.0337 58.3742 24.5875C54.4554 20.6081 49.9179 16.0012 40.0029 16.0012ZM20.0029 40C9.33668 40 2.67168 45.3318 0.00292969 56.0012C4.00168 50.6662 8.66918 48.6668 14.0017 50C17.0461 50.7593 19.2217 52.9662 21.6311 55.4125C25.5523 59.3918 30.0911 63.9987 40.0029 63.9987C50.6692 63.9987 57.3342 58.6675 60.0029 48.0006C56.0036 53.3325 51.3361 55.3318 46.0036 53.9987C42.9598 53.24 40.7867 51.0325 38.3742 48.5862C34.4554 44.6068 29.9179 40 20.0029 40Z" fill="#38B2AC"/>
</svg>
