<svg width="80" height="80" viewBox="0 0 80 80" fill="none" xmlns="http://www.w3.org/2000/svg">
<path d="M2.28519 28.1519C2.28519 28.1519 0.393312 26.7825 2.66644 24.9563L7.95894 20.21C7.95894 20.21 9.47519 18.6107 11.0771 20.005L59.9364 57.085V74.8663C59.9364 74.8663 59.9121 77.6588 56.3383 77.3513L2.28519 28.1519Z" fill="#2489CA"/>
<path d="M14.8806 39.6118L2.28496 51.0887C2.28496 51.0887 0.991211 52.0531 2.28496 53.7793L8.13246 59.1087C8.13246 59.1087 9.52121 60.6056 11.575 58.9037L24.9243 48.7549L14.8806 39.6118Z" fill="#1070B3"/>
<path d="M36.9904 39.707L60.0861 22.0288L59.9367 4.34321C59.9367 4.34321 58.9504 0.483206 55.6598 2.49383L24.9248 30.532L36.9904 39.707Z" fill="#0877B9"/>
<path d="M56.3373 77.3731C57.6779 78.75 59.3042 78.2981 59.3042 78.2981L77.3023 69.4093C79.6067 67.8343 79.2842 65.8812 79.2842 65.8812V12.7906C79.2842 10.4562 76.9017 9.65059 76.9017 9.65059L61.3011 2.11246C57.8929 0.000585198 55.6592 2.49371 55.6592 2.49371C55.6592 2.49371 58.5298 0.420585 59.9361 4.34371V74.5418C59.9361 75.025 59.8336 75.4981 59.6286 75.9256C59.2186 76.7581 58.3248 77.5318 56.1886 77.2075L56.3373 77.3731Z" fill="#3C99D4"/>
</svg>
